PathFileType	4	(X/Y/Z)	S1_nor_slow_left.trc
DataRate	CameraRate	NumFrames	NumMarkers	Units	OrigDataRate	OrigDataStartFrame	OrigNumFrames
250.00	250.00	20	18	mm	250.00	1541	12323
Frame#	Time	c7	r_should	l_should	clavicle	r_upa	r_elb_l	r_elb_m	r_low	r_wri_l	r_wri_m	r_met	l_upa	l_elb_l	l_elb_m	l_low	l_wri_l	l_wri_m	l_met
	X1	Y1	Z1	X2	Y2	Z2	X3	Y3	Z3	X4	Y4	Z4	X5	Y5	Z5	X6	Y6	Z6	X7	Y7	Z7	X8	Y8	Z8	X9	Y9	Z9	X10	Y10	Z10	X11	Y11	Z11	X12	Y12	Z12	X13	Y13	Z13	X14	Y14	Z14	X15	Y15	Z15	X16	Y16	Z16	X17	Y17	Z17	X18	Y18	Z18
1541	6.16000	856.60382	1420.97400	74.00261	926.27161	1359.48779	257.62000	890.48682	1340.31421	-115.62982	984.20190	1289.82043	62.96829	894.86163	1168.68054	339.34241	904.78198	1070.88831	359.18649	828.99969	1046.05273	297.07315	881.52313	940.50470	381.72290	975.54950	869.78003	347.34933	909.49011	842.63733	365.95844	1023.52820	793.68518	364.58868	865.99384	1119.67212	-138.01709	866.84113	1063.88440	-143.85138	848.54791	1023.45752	-51.27597	971.70300	991.80493	-113.88057	1061.39600	1045.49609	-139.61282	nan	nan	nan	nan	nan	nan
1542	6.16400	856.67780	1420.96838	73.99015	926.31421	1359.50330	257.60675	890.67651	1340.29822	-115.65588	984.29041	1289.82458	62.96801	894.89636	1168.70032	339.34985	904.80627	1070.90564	359.20877	829.04407	1046.07581	297.08087	881.53180	940.52747	381.75345	975.54480	869.78455	347.40546	909.48358	842.66602	366.01627	1023.51331	793.68890	364.65515	866.00269	1119.63794	-137.98347	866.83667	1063.72571	-143.80058	848.48950	1023.40649	-51.23476	971.47211	991.14941	-113.88215	1061.41064	1044.38208	-139.70680	nan	nan	nan	nan	nan	nan
1543	6.16800	856.75104	1420.96570	73.97520	926.35419	1359.51611	257.60187	890.85864	1340.28589	-115.67982	984.38373	1289.83264	62.97283	894.92688	1168.72644	339.36523	904.82703	1070.92664	359.22693	829.08398	1046.09583	297.08560	881.54529	940.55322	381.78754	975.54614	869.80389	347.46344	909.48541	842.68549	366.06970	1023.51056	793.69891	364.72614	866.01562	1119.60779	-137.94643	866.82190	1063.56299	-143.74026	848.43781	1023.35455	-51.19180	971.24463	990.48779	-113.89410	1061.47815	1043.24280	-139.71877	nan	nan	nan	nan	nan	nan
1544	6.17200	856.81799	1420.96033	73.94654	926.39325	1359.53076	257.59143	891.02783	1340.27649	-115.70358	984.47760	1289.84448	62.98293	894.94928	1168.74304	339.36841	904.84558	1070.94763	359.23770	829.11688	1046.11108	297.08075	881.55377	940.57935	381.82224	975.54327	869.81451	347.51917	909.48846	842.70471	366.12463	1023.51141	793.70551	364.79169	866.02832	1119.57642	-137.90956	866.79718	1063.41870	-143.68620	848.38593	1023.30627	-51.15112	971.01642	989.81812	-113.90283	1061.55249	1042.09924	-139.70958	nan	nan	nan	nan	nan	nan
1545	6.17600	856.89032	1420.95776	73.92470	926.44189	1359.55164	257.57690	891.19293	1340.26221	-115.72865	984.56964	1289.85730	62.99041	894.97449	1168.76648	339.37173	904.87311	1070.97815	359.24576	829.16010	1046.12451	297.08267	881.56500	940.60809	381.84973	975.55701	869.83386	347.57339	909.50214	842.72656	366.17548	1023.51904	793.72290	364.86316	866.04169	1119.54065	-137.86853	866.78003	1063.26599	-143.62439	848.34344	1023.26062	-51.10561	970.79102	989.13373	-113.93741	1061.53088	1041.28931	-140.03709	nan	nan	nan	nan	nan	nan
1546	6.18000	856.95966	1420.95227	73.89976	926.49750	1359.56445	257.56366	891.35327	1340.25024	-115.75266	984.65900	1289.86768	62.99575	895.00232	1168.78174	339.36887	904.89819	1071.00684	359.26193	829.20135	1046.14380	297.08325	881.58362	940.63940	381.87134	975.57507	869.85162	347.62106	909.52081	842.74731	366.21844	1023.53003	793.74072	364.92944	866.05475	1119.50342	-137.82349	866.77637	1063.09155	-143.56213	848.29590	1023.22235	-51.06280	970.58173	988.48438	-113.97284	1061.35608	1040.91638	-140.75423	nan	nan	nan	nan	nan	nan
1547	6.18400	857.03113	1420.95544	73.86840	926.55096	1359.57886	257.54465	891.50873	1340.24146	-115.77799	984.74426	1289.88110	62.98969	895.03369	1168.80798	339.37695	904.93274	1071.03589	359.27548	829.24164	1046.16663	297.07596	881.60846	940.66846	381.89078	975.60089	869.87177	347.67084	909.54480	842.77057	366.26007	1023.55383	793.76300	364.99570	866.06726	1119.46191	-137.78343	866.78741	1062.91089	-143.49127	848.25128	1023.18488	-51.00705	970.36414	987.83459	-113.99752	1061.30261	1039.91919	-140.82764	nan	nan	nan	nan	nan	nan
1548	6.18800	857.10052	1420.96448	73.83588	926.60846	1359.59119	257.53027	891.65747	1340.22571	-115.80355	984.82037	1289.88953	62.97924	895.06476	1168.85095	339.38873	904.96301	1071.06360	359.28729	829.29034	1046.18201	297.07175	881.63214	940.69562	381.91260	975.62958	869.89374	347.71561	909.56750	842.79706	366.30255	1023.58173	793.78876	365.06802	866.08258	1119.41931	-137.74086	866.80640	1062.74084	-143.41541	848.21124	1023.15460	-50.95458	970.12830	987.16241	-113.99950	1061.30554	1038.76978	-140.77733	nan	nan	nan	nan	nan	nan
1549	6.19200	857.16949	1420.96252	73.81483	926.66400	1359.60901	257.51135	891.80157	1340.20996	-115.84370	984.89368	1289.89062	62.97585	895.08307	1168.87695	339.38245	904.99023	1071.08948	359.30188	829.32672	1046.20837	297.07181	881.65155	940.72498	381.93887	975.66125	869.91986	347.76529	909.58759	842.82611	366.34375	1023.60773	793.82300	365.14386	866.09979	1119.37830	-137.70038	866.82611	1062.56885	-143.35220	848.17743	1023.12244	-50.90368	969.89221	986.47089	-113.97912	1061.39880	1037.57996	-140.68228	nan	nan	nan	nan	nan	nan
1550	6.19600	857.23572	1420.96313	73.78052	926.71582	1359.62683	257.48984	891.94446	1340.19214	-115.87897	984.97101	1289.89001	62.97419	895.10638	1168.89722	339.38971	905.01605	1071.10986	359.33173	829.36499	1046.23816	297.06882	881.67487	940.75403	381.96539	975.69672	870.09943	347.92291	909.61713	842.85461	366.38495	1023.64301	793.85815	365.21295	866.11920	1119.33618	-137.65453	866.85773	1062.39807	-143.27446	848.14270	1023.08368	-50.84898	969.66602	985.78241	-113.99107	1061.55872	1036.36340	-140.51968	nan	nan	nan	nan	nan	nan
1551	6.20000	857.30194	1420.96228	73.74779	926.77008	1359.64026	257.47302	892.08899	1340.16711	-115.91025	985.04962	1289.90198	62.97507	895.12585	1168.91956	339.38904	905.04169	1071.14038	359.35388	829.40509	1046.25439	297.07101	881.69659	940.78595	381.99030	975.72662	870.45166	348.19043	909.64978	842.88354	366.42374	1023.68079	793.89056	365.28949	866.14545	1119.29065	-137.60095	866.89520	1062.24060	-143.20233	848.11853	1023.04816	-50.79346	969.46069	985.11340	-114.02151	1061.71155	1035.11182	-140.36282	nan	nan	nan	nan	nan	nan
1552	6.20400	857.36035	1420.95984	73.71764	926.82416	1359.65234	257.45490	892.23810	1340.14441	-115.94037	985.13007	1289.91699	62.96316	895.15240	1168.94348	339.38806	905.06958	1071.17480	359.37311	829.44830	1046.27393	297.07370	881.72351	940.81543	382.01300	975.72266	870.48828	348.23389	909.68634	842.91522	366.45950	1023.71967	793.92828	365.37003	866.17645	1119.23718	-137.54135	866.93457	1062.08228	-143.12148	848.10022	1022.99915	-50.73507	969.24640	984.41687	-114.03402	1061.85583	1033.86755	-140.24057	nan	nan	nan	nan	nan	nan
1553	6.20800	857.42023	1420.95251	73.68368	926.88080	1359.66943	257.42935	892.37848	1340.12195	-115.96632	985.21149	1289.92554	62.95319	895.19012	1168.97803	339.39468	905.10693	1071.21021	359.38708	829.49371	1046.29065	297.07303	881.75879	940.84509	382.03534	975.71124	870.44720	348.22775	909.72473	842.94476	366.49506	1023.76471	793.96796	365.45062	866.21478	1119.18518	-137.48407	866.98016	1061.91101	-143.03250	848.07550	1022.94971	-50.66678	969.02057	983.71613	-114.02455	1062.00415	1032.62402	-140.11693	nan	nan	nan	nan	nan	nan
1554	6.21200	857.47833	1420.95483	73.64368	926.93610	1359.69067	257.41330	892.52631	1340.08923	-115.99810	985.29193	1289.94446	62.94871	895.23169	1169.00635	339.40015	905.14746	1071.24280	359.40225	829.53564	1046.31433	297.06729	881.79688	940.88135	382.06036	975.69324	870.38593	348.21255	909.76605	842.97559	366.53012	1023.82037	794.00482	365.53082	866.26483	1119.12866	-137.42426	867.04395	1061.73206	-142.94228	848.05286	1022.90192	-50.60194	968.79956	983.01794	-113.99153	1062.18591	1031.37207	-139.94843	nan	nan	nan	nan	nan	nan
1555	6.21600	857.53607	1420.95618	73.61184	926.99170	1359.71216	257.40213	892.68542	1340.05212	-116.02422	985.37720	1289.96277	62.94808	895.27069	1169.03430	339.39392	905.19055	1071.27319	359.41962	829.58417	1046.33899	297.06683	881.83838	940.91608	382.08466	975.69470	870.33588	348.19739	909.81647	843.01245	366.56461	1023.88129	794.05035	365.60086	866.32599	1119.07080	-137.37022	867.11591	1061.54590	-142.84358	848.03131	1022.84589	-50.53793	968.61115	982.33221	-113.99254	1062.03467	1030.26697	-139.89171	nan	nan	nan	nan	nan	nan
1556	6.22000	857.60626	1420.95728	73.57869	927.04175	1359.73242	257.38611	892.84338	1340.01123	-116.04556	985.46741	1289.97400	62.95061	895.30621	1169.05518	339.36819	905.23291	1071.31445	359.43475	829.63550	1046.36023	297.07404	881.88135	940.94763	382.10602	975.72040	870.31256	348.19794	909.87091	843.04810	366.59973	1023.94104	794.09625	365.66757	866.39935	1119.00586	-137.31340	867.19324	1061.34802	-142.75255	848.01434	1022.77563	-50.48299	968.43530	981.63251	-113.99866	1061.45508	1029.30615	-140.04182	nan	nan	nan	nan	nan	nan
1557	6.22400	857.66949	1420.95898	73.54715	927.08710	1359.76367	257.36957	892.99908	1339.97388	-116.07433	985.55872	1289.98267	62.95086	895.35089	1169.07910	339.36368	905.27911	1071.35327	359.44797	829.68994	1046.37964	297.08414	881.92694	940.98077	382.12506	975.76514	870.32361	348.22165	909.93115	843.07990	366.63370	1024.00818	794.14404	365.73904	866.48035	1118.94434	-137.26259	867.27386	1061.14490	-142.64308	848.00342	1022.70636	-50.42941	968.24335	980.91724	-113.98240	1061.19629	1027.98718	-140.37747	nan	nan	nan	nan	nan	nan
1558	6.22800	857.72754	1420.96277	73.51764	927.12769	1359.79041	257.35199	893.15491	1339.93469	-116.09972	985.64764	1289.99573	62.96415	895.40179	1169.11060	339.36819	905.32703	1071.38501	359.45612	829.74384	1046.40662	297.08505	881.98309	941.01990	382.14490	975.82214	870.34869	348.25363	909.99481	843.11639	366.66782	1024.07800	794.19501	365.80725	866.56030	1118.87878	-137.21178	867.33911	1060.94678	-142.55827	848.00006	1022.63580	-50.36930	968.02972	980.17938	-113.90789	1060.73083	1026.51550	-141.12451	nan	nan	nan	nan	nan	nan
1559	6.23200	857.78314	1420.96594	73.48045	927.16602	1359.81335	257.34265	893.31415	1339.89307	-116.12604	985.73376	1290.01599	62.98465	895.45740	1169.14502	339.37314	905.37646	1071.41943	359.47882	829.80371	1046.42920	297.09015	882.03723	941.05627	382.17325	975.89209	870.38263	348.29474	910.06342	843.15527	366.70935	1024.14661	794.24261	365.86612	866.63794	1118.81140	-137.16576	867.41016	1060.75598	-142.47682	847.99805	1022.56024	-50.30817	967.81482	979.45502	-113.81853	1060.70166	1025.15210	-141.25522	nan	nan	nan	nan	nan	nan
1560	6.23600	857.83569	1420.96362	73.44959	927.20001	1359.83606	257.33334	893.47101	1339.85352	-116.14704	985.81140	1290.03271	62.99015	895.50677	1169.17725	339.37759	905.42755	1071.45203	359.49823	829.86285	1046.45044	297.10632	882.09430	941.08746	382.20154	975.96564	870.42554	348.34442	910.13660	843.19434	366.75089	1024.22314	794.28949	365.92340	866.71960	1118.75000	-137.12343	867.47736	1060.55115	-142.37608	847.99554	1022.48181	-50.25003	967.61194	978.75702	-113.77286	1060.76978	1023.85352	-141.24298	nan	nan	nan	nan	nan	nan
